<?xml version="1.0" encoding="utf-8"?>
<!-- Generator: Adobe Illustrator 27.5.0, SVG Export Plug-In . SVG Version: 6.00 Build 0)  -->
<svg version="1.1" xmlns="http://www.w3.org/2000/svg" xmlns:xlink="http://www.w3.org/1999/xlink" x="0px" y="0px"
	 viewBox="0 0 500 500" style="enable-background:new 0 0 500 500;" xml:space="preserve">
<g id="Background">
	<rect id="XMLID_841_" style="fill:#FFFFFF;" width="500" height="500"/>
	
		<radialGradient id="SVGID_1_" cx="158.6326" cy="337.2903" r="563.3699" gradientTransform="matrix(0 0.6251 -0.6251 0 460.8401 150.8387)" gradientUnits="userSpaceOnUse">
		<stop  offset="0" style="stop-color:#FFFFFF;stop-opacity:0"/>
		<stop  offset="0.0947" style="stop-color:#F7F7F7;stop-opacity:0.0331"/>
		<stop  offset="0.2425" style="stop-color:#E1E1E1;stop-opacity:0.0849"/>
		<stop  offset="0.425" style="stop-color:#BDBDBD;stop-opacity:0.1487"/>
		<stop  offset="0.635" style="stop-color:#8B8B8A;stop-opacity:0.2223"/>
		<stop  offset="0.8653" style="stop-color:#4B4B4B;stop-opacity:0.3029"/>
		<stop  offset="1" style="stop-color:#232322;stop-opacity:0.35"/>
	</radialGradient>
	<rect style="fill:url(#SVGID_1_);" width="500" height="500"/>
</g>
<g id="Objects">
	<g>
		<g>
			<defs>
				<path id="SVGID_00000142870900133923573280000015689244258817383583_" d="M460.254,237.088
					c0,115.047-93.26,208.307-208.304,208.307c-115.046,0-208.307-93.26-208.307-208.307c0-115.04,93.261-208.3,208.307-208.3
					C366.994,28.788,460.254,122.049,460.254,237.088z"/>
			</defs>
			<clipPath id="SVGID_00000122706802512291345280000015592584847903335301_">
				<use xlink:href="#SVGID_00000142870900133923573280000015689244258817383583_"  style="overflow:visible;"/>
			</clipPath>
			
				<linearGradient id="SVGID_00000109739938844248750800000000660249637685465220_" gradientUnits="userSpaceOnUse" x1="66.42" y1="522.7772" x2="401.3979" y2="-57.4217">
				<stop  offset="0" style="stop-color:#293A58;stop-opacity:0.7"/>
				<stop  offset="0.0587" style="stop-color:#283856;stop-opacity:0.7176"/>
				<stop  offset="0.4715" style="stop-color:#21304C;stop-opacity:0.8415"/>
				<stop  offset="1" style="stop-color:#1F2E49"/>
			</linearGradient>
			
				<rect x="-26.499" y="-3.775" style="clip-path:url(#SVGID_00000122706802512291345280000015592584847903335301_);fill:url(#SVGID_00000109739938844248750800000000660249637685465220_);" width="520.816" height="472.905"/>
		</g>
		<path style="fill:#FFFFFF;" d="M345.614,356.649c-1.442-4.121-5.376-6.657-9.52-6.512c-27.111,2.484-33.873-19.319-35.67-30.195
			c-1.539-9.308-3.338-37.734-3.338-37.734c0-36.005-26.949-65.198-62.959-65.198c-36.012,0-62.82,29.193-62.965,65.198
			c-0.03,7.688-0.12,15.048-0.627,30.751c-0.215,6.67-31.976,4.491-37.721-18.459c-1.231-3.962-4.924-6.837-9.29-6.837
			c-5.373,0-9.728,4.355-9.728,9.731c0,1.115,0.197,2.182,0.541,3.178l-0.007,0.003c9.42,31.914,49.152,34.726,52.117,44.659
			c4.949,16.567,2.472,52.024,2.472,52.024c0,0.011,0,0.02,0,0.029s0,0.019,0,0.03v1.368h0.064
			c0.71,8.364,7.718,14.931,16.267,14.931c8.549,0,15.557-6.567,16.266-14.931h0.127c0.71,8.364,7.719,14.931,16.266,14.931
			c8.548,0,15.555-6.567,16.265-14.931h0.126c0.71,8.364,7.719,14.931,16.266,14.931c8.548,0,15.555-6.567,16.264-14.931h0.129
			c0.709,8.364,7.716,14.931,16.263,14.931c16.109,0,16.249-18.136,16.107-19.008l-0.776-38.875
			c9.549,8.087,22.232,14.637,37.915,13.858v-0.008c1.054-0.004,2.126-0.171,3.177-0.538
			C344.718,367.269,347.389,361.72,345.614,356.649z"/>
		
			<rect x="113.795" y="266.204" transform="matrix(0.9886 -0.1503 0.1503 0.9886 -43.0676 21.0239)" style="fill:#725C41;" width="7.505" height="58.435"/>
		
			<rect x="114.854" y="267.263" transform="matrix(0.9886 -0.1503 0.1503 0.9886 -43.0708 21.0257)" style="fill:#92785C;" width="5.388" height="56.318"/>
		<path style="fill:#846C53;stroke:#6F5B45;stroke-width:2;stroke-miterlimit:10;" d="M174.706,257.766
			c0.544,3.227-1.272,6.222-4.057,6.69L50.967,284.611c-2.784,0.469-5.482-1.766-6.026-4.994l-11.15-66.198
			c-0.543-3.227,1.273-6.224,4.057-6.693l119.687-20.158c2.782-0.469,5.478,1.767,6.022,4.994L174.706,257.766z"/>
		<path style="fill:#92785C;" d="M50.225,282.557c-1.506,0-2.88-1.415-3.196-3.293L35.88,213.068
			c-0.349-2.071,0.692-3.979,2.321-4.253l119.686-20.158c0.13-0.022,0.261-0.033,0.39-0.033c1.505,0,2.879,1.415,3.196,3.291
			l11.148,66.202c0.348,2.071-0.693,3.979-2.323,4.253L50.615,282.524C50.486,282.546,50.355,282.557,50.225,282.557z"/>
		
			<text transform="matrix(0.9873 -0.1587 0.1587 0.9873 49.3631 266.7769)" style="fill:#FFFFFF; font-family:'LeagueSpartan-Bold'; font-size:56.0077px; letter-spacing:2;">404</text>
		<path style="fill:#1F2E49;" d="M310.828,432.843c0,1.65-33.513,2.988-74.853,2.988c-41.341,0-74.85-1.337-74.85-2.988
			c0-1.649,33.509-2.987,74.85-2.987C277.315,429.856,310.828,431.194,310.828,432.843z"/>
		<path style="fill:#1F2E49;" d="M153.973,382.661c0,1.021-15.791,1.848-35.27,1.848c-19.479,0-35.27-0.827-35.27-1.848
			c0-1.02,15.79-1.847,35.27-1.847C138.182,380.814,153.973,381.641,153.973,382.661z"/>
		<g>
			<path style="fill:#3B5170;" d="M442.89,107.561c-1.757,0-3.451,0.266-5.05,0.75c-2.075-14.434-14.488-25.529-29.495-25.529
				c-12.866,0-23.827,8.152-28.002,19.572c-2.804-1.379-5.958-2.157-9.295-2.157c-8.386,0-15.63,4.894-19.03,11.982
				c-3.102-2.858-7.232-4.618-11.783-4.618c-9.618,0-17.415,7.797-17.415,17.415h137.485
				C460.305,115.358,452.507,107.561,442.89,107.561z"/>
			<path style="fill:#FFFFFF;" d="M332.828,67.2c0-14.779,10.037-27.208,23.664-30.857c-2.642-0.708-5.417-1.09-8.282-1.09
				c-17.645,0-31.947,14.303-31.947,31.948c0,17.644,14.303,31.948,31.947,31.948c2.865,0,5.64-0.383,8.282-1.091
				C342.864,94.408,332.828,81.979,332.828,67.2z"/>
			<path style="fill:#384D6B;" d="M195.963,111.553c-0.021-0.304-0.046-0.607-0.046-0.917c0-6.907,5.6-12.506,12.506-12.506
				c2.643,0,5.09,0.825,7.11,2.224c1.038-12.013,11.112-21.441,23.393-21.441c10.722,0,19.76,7.187,22.574,17.005
				c3.134-4.558,8.384-7.549,14.335-7.549c9.602,0,17.386,7.784,17.386,17.386c0,2.034-0.352,3.984-0.994,5.797H195.963z"/>
			<path style="fill:#3D5473;" d="M140.425,111.634c1.178,0,2.313,0.178,3.384,0.502c1.39-9.665,9.706-17.095,19.76-17.095
				c8.62,0,15.962,5.459,18.759,13.106c1.879-0.924,3.992-1.445,6.228-1.445c5.616,0,10.466,3.277,12.744,8.024
				c2.077-1.914,4.842-3.092,7.889-3.092c6.44,0,11.661,5.221,11.661,11.661h-92.096
				C128.755,116.855,133.978,111.634,140.425,111.634z"/>
			<polygon style="fill:#F5DE32;" points="293.218,67.071 294.443,69.553 297.183,69.951 295.2,71.883 295.668,74.612 
				293.218,73.324 290.767,74.612 291.236,71.883 289.252,69.951 291.992,69.553 			"/>
			<polygon style="fill:#F5DE32;" points="203.866,82.782 205.091,85.264 207.831,85.662 205.849,87.594 206.317,90.323 
				203.866,89.035 201.415,90.323 201.884,87.594 199.901,85.662 202.641,85.264 			"/>
			<polygon style="fill:#F5DE32;" points="136.368,95.377 137.593,97.86 140.333,98.258 138.35,100.19 138.818,102.919 
				136.368,101.631 133.917,102.919 134.386,100.19 132.403,98.258 135.142,97.86 			"/>
			<polygon style="fill:#F5DE32;" points="367.08,53.088 367.745,54.435 369.232,54.651 368.156,55.699 368.41,57.179 
				367.08,56.481 365.751,57.179 366.005,55.699 364.929,54.651 366.416,54.435 			"/>
			<polygon style="fill:#F5DE32;" points="364.529,91.969 365.432,93.798 367.451,94.091 365.99,95.515 366.335,97.525 
				364.529,96.577 362.723,97.525 363.068,95.515 361.607,94.091 363.627,93.798 			"/>
			<polygon style="fill:#F5DE32;" points="245.024,36.4 245.983,38.343 248.129,38.654 246.576,40.167 246.943,42.304 
				245.024,41.295 243.105,42.304 243.472,40.167 241.919,38.654 244.065,38.343 			"/>
			<polygon style="fill:#F5DE32;" points="95.078,82.378 96.037,84.322 98.183,84.633 96.63,86.146 96.997,88.282 95.078,87.274 
				93.159,88.282 93.526,86.146 91.974,84.633 94.119,84.322 			"/>
			<path style="fill:#40597A;" d="M362.279,147.814c0.032-0.456,0.069-0.912,0.069-1.377c0-10.377-8.413-18.79-18.79-18.79
				c-3.971,0-7.648,1.239-10.682,3.341c-1.559-18.048-16.694-32.213-35.146-32.213c-16.109,0-29.687,10.798-33.916,25.549
				c-4.709-6.849-12.597-11.342-21.537-11.342c-14.427,0-26.122,11.695-26.122,26.122c0,3.055,0.529,5.985,1.493,8.71H362.279z"/>
			<path style="fill:#FFFFFF;" d="M304.133,86.552c0,0.675-0.547,1.222-1.222,1.222c-0.675,0-1.222-0.547-1.222-1.222
				c0-0.675,0.547-1.222,1.222-1.222C303.586,85.33,304.133,85.877,304.133,86.552z"/>
			<path style="fill:#FFFFFF;" d="M357.714,78.914c0,0.675-0.547,1.222-1.222,1.222c-0.675,0-1.222-0.547-1.222-1.222
				c0-0.675,0.547-1.222,1.222-1.222C357.167,77.692,357.714,78.239,357.714,78.914z"/>
			<path style="fill:#FFFFFF;" d="M193.09,57.179c0,0.844-0.684,1.528-1.528,1.528c-0.843,0-1.527-0.684-1.527-1.528
				s0.684-1.527,1.527-1.527C192.406,55.652,193.09,56.336,193.09,57.179z"/>
			<path style="fill:#FFFFFF;" d="M282.493,51.561c0,0.844-0.684,1.528-1.528,1.528c-0.843,0-1.527-0.684-1.527-1.528
				c0-0.844,0.684-1.527,1.527-1.527C281.809,50.033,282.493,50.717,282.493,51.561z"/>
			<path style="fill:#FFFFFF;" d="M120.231,88.282c0,0.844-0.684,1.528-1.528,1.528c-0.843,0-1.527-0.684-1.527-1.528
				c0-0.844,0.684-1.527,1.527-1.527C119.547,86.755,120.231,87.438,120.231,88.282z"/>
			<path style="fill:#FFFFFF;" d="M298.806,26.944c0,0.896-0.727,1.624-1.624,1.624c-0.896,0-1.622-0.727-1.622-1.624
				c0-0.896,0.726-1.623,1.622-1.623C298.079,25.321,298.806,26.048,298.806,26.944z"/>
			<path style="fill:#FFFFFF;" d="M407.804,68.598c0,0.56-0.455,1.015-1.015,1.015c-0.56,0-1.014-0.455-1.014-1.015
				c0-0.56,0.454-1.014,1.014-1.014C407.35,67.584,407.804,68.038,407.804,68.598z"/>
			<path style="fill:#FFFFFF;" d="M249.144,70.841c0,0.56-0.455,1.015-1.015,1.015c-0.56,0-1.014-0.455-1.014-1.015
				c0-0.56,0.454-1.014,1.014-1.014C248.689,69.827,249.144,70.281,249.144,70.841z"/>
			<path style="fill:#FFFFFF;" d="M160.21,79.928c0,0.56-0.455,1.015-1.015,1.015c-0.56,0-1.014-0.455-1.014-1.015
				c0-0.56,0.454-1.014,1.014-1.014C159.755,78.914,160.21,79.368,160.21,79.928z"/>
		</g>
		<path style="fill:#FFFFFF;" d="M423.913,268.897c-2.961-2.513-5.431-2.863-6.871-9.228c-0.599-2.651-0.98-10.873-0.98-10.873
			c-0.293-9.082-0.345-13.339-0.362-17.784c-0.084-20.831-15.591-37.72-36.425-37.72c-20.832,0-35.199,16.924-36.422,37.72
			c-0.437,7.423,0.387,18.311-1.974,27.66c-1.629,6.448-7.242,13.99-11.824,15.482c-6.941,2.259-9.255,11.513,0,11.129
			c4.152-0.173,8.769-3.873,12.6-7.898c-0.102,10.761-0.1,18.65-0.1,18.65c-0.081,0.505-0.001,10.997,9.319,10.997
			c4.944,0,8.998-3.8,9.409-8.638h0.075c0.409,4.838,4.463,8.638,9.408,8.638c4.945,0,9-3.8,9.41-8.638h0.073
			c0.411,4.838,4.465,8.638,9.41,8.638c4.944,0,8.999-3.8,9.409-8.638h0.074c0.41,4.838,4.465,8.638,9.41,8.638
			s8.999-3.8,9.409-8.638h0.037c0,0,0-0.803,0-0.809c0-0.005,0-0.011,0-0.018l-0.385-20.078c1.732,1.298,3.622,2.976,6.144,4.322
			c7.584,4.049,11.533-0.277,10.026-5.592C431.689,272.362,427.79,272.185,423.913,268.897z"/>
		<g>
			<path style="fill:#272525;" d="M386.086,243.949c0,4.453-3.609,8.061-8.062,8.061c-4.452,0-8.061-3.609-8.061-8.061
				c0-4.453,3.609-8.06,8.061-8.06C382.477,235.889,386.086,239.496,386.086,243.949z"/>
			<path style="fill:#B2474D;" d="M378.037,252.01c2.891,0,5.419-1.527,6.842-3.811c-1.36-2.531-4.032-4.25-7.104-4.25
				c-2.889,0-5.418,1.525-6.841,3.81C372.294,250.289,374.964,252.01,378.037,252.01z"/>
		</g>
		<ellipse style="fill:#1F2E49;" cx="378.025" cy="340.659" rx="35.286" ry="1.493"/>
		
			<text transform="matrix(1 0 0 1 108.0531 173.8649)" style="fill:#FFFFFF; font-family:'Raleway-SemiBold'; font-size:19.0663px;">Oops...sorry page not found!</text>
		<path style="fill:#FFFFFF;" d="M124.444,295.424c0,0-4.773-2.568-5.568,0c-0.795,2.568,1.1,7.335,6.773,7.07
			C131.322,302.229,124.444,295.424,124.444,295.424z"/>
		<g>
			<path style="fill:#DCDCDB;" d="M195.643,247.841c-0.742-1.861-2.919-2.179-4.865-0.71c-1.945,1.469-2.921,4.17-2.18,6.031
				c0.742,1.861,2.919,2.179,4.865,0.71C195.408,252.402,196.384,249.702,195.643,247.841z"/>
			<path style="fill:#DCDCDB;" d="M216.906,231.056c-1.458-2.171-6.735-1.232-11.788,2.097c-5.053,3.329-7.967,7.788-6.51,9.959
				c1.457,2.171,6.735,1.232,11.788-2.097C215.449,237.686,218.364,233.227,216.906,231.056z"/>
		</g>
		<g>
			<path style="fill:#DCDCDB;" d="M360.384,211.182c-0.428-1.076-1.687-1.259-2.811-0.41c-1.124,0.849-1.688,2.409-1.259,3.485
				s1.687,1.259,2.811,0.41C360.249,213.817,360.813,212.257,360.384,211.182z"/>
			<path style="fill:#DCDCDB;" d="M372.671,201.483c-0.842-1.254-3.891-0.712-6.811,1.212c-2.919,1.924-4.604,4.5-3.761,5.754
				c0.842,1.254,3.891,0.712,6.811-1.212C371.829,205.314,373.513,202.738,372.671,201.483z"/>
		</g>
		<g>
			<path style="fill:#272525;" d="M247.848,312.266c-1.028,0-1.997-0.629-2.38-1.649c-2.087-5.547-6.846-7.524-10.606-7.524
				c-0.001,0-0.003,0-0.004,0c-3.753,0.002-8.504,1.979-10.585,7.522c-0.494,1.316-1.96,1.982-3.274,1.488
				c-1.315-0.494-1.982-1.96-1.488-3.274c2.503-6.673,8.383-10.819,15.344-10.822c0.003,0,0.006,0,0.008,0
				c6.968,0,12.854,4.145,15.366,10.82c0.495,1.314-0.17,2.781-1.485,3.275C248.449,312.214,248.146,312.266,247.848,312.266z"/>
		</g>
		<g>
			<g>
				<g>
					<path style="fill:#F2E0DF;" d="M205.083,293.638c0.392,0.009,0.786-0.132,1.091-0.426l3.862-3.709
						c0.609-0.584,0.628-1.551,0.044-2.159c-0.584-0.608-1.551-0.628-2.159-0.044l-3.862,3.709
						c-0.608,0.584-0.628,1.551-0.044,2.159C204.307,293.472,204.694,293.63,205.083,293.638z"/>
				</g>
				<g>
					<path style="fill:#F2E0DF;" d="M197.393,293.897c0.391,0.009,0.786-0.132,1.091-0.426l3.862-3.709
						c0.609-0.584,0.628-1.551,0.044-2.159c-0.584-0.608-1.551-0.628-2.159-0.044l-3.862,3.709
						c-0.608,0.584-0.628,1.551-0.044,2.159C196.617,293.731,197.004,293.888,197.393,293.897z"/>
				</g>
				<g>
					<path style="fill:#F2E0DF;" d="M189.703,294.156c0.392,0.009,0.787-0.132,1.091-0.425l3.862-3.709
						c0.609-0.584,0.628-1.551,0.044-2.159c-0.584-0.608-1.551-0.628-2.159-0.044l-3.862,3.709
						c-0.609,0.584-0.628,1.551-0.044,2.159C188.927,293.99,189.313,294.147,189.703,294.156z"/>
				</g>
			</g>
			<g>
				<path id="XMLID_493_" style="fill:#272525;" d="M207.152,274.392c-0.095,4.305-3.661,7.717-7.965,7.622
					c-4.305-0.095-7.717-3.661-7.622-7.966c0.095-4.304,3.661-7.717,7.966-7.622C203.834,266.522,207.247,270.088,207.152,274.392z"
					/>
			</g>
		</g>
		<g>
			<g>
				<g>
					<path style="fill:#F2E0DF;" d="M264.091,293.638c-0.392,0.009-0.786-0.132-1.091-0.426l-3.862-3.709
						c-0.608-0.584-0.628-1.551-0.044-2.159c0.584-0.608,1.551-0.628,2.159-0.044l3.862,3.709c0.609,0.584,0.628,1.551,0.044,2.159
						C264.868,293.472,264.481,293.63,264.091,293.638z"/>
				</g>
				<g>
					<path style="fill:#F2E0DF;" d="M271.782,293.897c-0.392,0.009-0.787-0.132-1.091-0.426l-3.862-3.709
						c-0.608-0.584-0.628-1.551-0.044-2.159c0.584-0.608,1.551-0.628,2.159-0.044l3.862,3.709c0.608,0.584,0.628,1.551,0.043,2.159
						C272.558,293.731,272.171,293.888,271.782,293.897z"/>
				</g>
				<g>
					<path style="fill:#F2E0DF;" d="M279.472,294.156c-0.392,0.009-0.787-0.132-1.091-0.425l-3.862-3.709
						c-0.609-0.584-0.628-1.551-0.044-2.159c0.584-0.608,1.551-0.628,2.159-0.044l3.862,3.709c0.609,0.584,0.628,1.551,0.044,2.159
						C280.248,293.99,279.861,294.147,279.472,294.156z"/>
				</g>
			</g>
			<g>
				<path id="XMLID_1_" style="fill:#272525;" d="M262.023,274.392c0.095,4.305,3.661,7.717,7.966,7.622
					c4.305-0.095,7.717-3.661,7.622-7.966c-0.095-4.304-3.661-7.717-7.966-7.622C265.341,266.522,261.928,270.088,262.023,274.392z"
					/>
			</g>
		</g>
		<g>
			<path style="fill:#6CAAD5;" d="M278.371,246.292c-0.87-1.756-2.254-3.234-3.744-4.56c-2.007-1.786-4.292-3.451-6.703-4.767
				c-0.34-0.186-0.729,0.134-0.588,0.482c0.56,1.376,0.74,2.896,0.755,4.386c0.019,1.886-0.206,3.772-0.153,5.658
				c0.053,1.885,0.406,3.816,1.476,5.396c1.069,1.579,2.965,2.743,4.95,2.605c2.05-0.143,3.834-1.68,4.512-3.526
				C279.553,250.121,279.241,248.049,278.371,246.292z"/>
			<path style="fill:#A5D5ED;" d="M277.967,249.237c-0.458-0.734-1.354-0.611-2.001,0.274c-0.648,0.885-0.802,2.198-0.344,2.932
				c0.458,0.734,1.354,0.611,2.001-0.274C278.271,251.283,278.425,249.971,277.967,249.237z"/>
		</g>
		<g>
			<path style="fill:#272525;" d="M403.248,227.757c0,2.662-2.157,4.818-4.818,4.818c-2.662,0-4.818-2.156-4.818-4.818
				c0-2.661,2.157-4.818,4.818-4.818C401.091,222.939,403.248,225.096,403.248,227.757z"/>
			<path style="fill:#272525;" d="M362.438,227.757c0,2.662-2.157,4.818-4.818,4.818c-2.662,0-4.819-2.156-4.819-4.818
				c0-2.661,2.157-4.818,4.819-4.818C360.281,222.939,362.438,225.096,362.438,227.757z"/>
		</g>
		<path style="fill:#3B5170;" d="M147.763,130.423c-1.49,0-2.926,0.225-4.281,0.636c-1.759-12.237-12.282-21.643-25.005-21.643
			c-10.907,0-20.2,6.911-23.739,16.593c-2.377-1.169-5.051-1.829-7.88-1.829c-7.109,0-13.251,4.149-16.133,10.159
			c-2.63-2.423-6.132-3.915-9.989-3.915c-8.154,0-14.764,6.61-14.764,14.764h116.556
			C162.527,137.033,155.917,130.423,147.763,130.423z"/>
		<g>
			<g>
				<path style="fill:#FFFFFF;" d="M417.521,194.372l8.571-7.747c0.735-0.665,1.87-0.607,2.535,0.128l0,0
					c0.664,0.735,0.607,1.87-0.128,2.535l-8.571,7.747c-0.735,0.665-1.87,0.607-2.535-0.128l0,0
					C416.728,196.171,416.786,195.037,417.521,194.372z M411.396,199.908l0.654-0.591c0.735-0.665,1.87-0.607,2.535,0.128l0,0
					c0.665,0.735,0.607,1.87-0.128,2.535l-0.654,0.591c-0.735,0.665-1.87,0.607-2.535-0.128l0,0
					C410.603,201.707,410.66,200.572,411.396,199.908z"/>
			</g>
			<g>
				<path style="fill:#FFFFFF;" d="M411.977,189.461l7.053-8.2c0.605-0.704,1.666-0.783,2.369-0.178l0,0
					c0.703,0.605,0.783,1.666,0.178,2.37l-7.053,8.2c-0.605,0.703-1.666,0.783-2.369,0.178l0,0
					C411.452,191.226,411.372,190.165,411.977,189.461z M406.937,195.321l0.538-0.626c0.605-0.703,1.666-0.783,2.369-0.178l0,0
					c0.703,0.605,0.783,1.666,0.178,2.369l-0.538,0.626c-0.605,0.703-1.666,0.783-2.369,0.178l0,0
					C406.411,197.086,406.332,196.025,406.937,195.321z"/>
			</g>
			<g>
				<path style="fill:#FFFFFF;" d="M422.519,200.727l9.095-5.854c0.78-0.502,1.82-0.277,2.322,0.503l0,0
					c0.502,0.78,0.277,1.82-0.503,2.322l-9.095,5.854c-0.78,0.502-1.82,0.277-2.322-0.503l0,0
					C421.513,202.269,421.739,201.23,422.519,200.727z M416.019,204.911l0.694-0.447c0.78-0.502,1.82-0.277,2.322,0.503l0,0
					c0.502,0.78,0.277,1.82-0.503,2.322l-0.694,0.447c-0.78,0.502-1.82,0.277-2.322-0.503l0,0
					C415.014,206.453,415.239,205.413,416.019,204.911z"/>
			</g>
		</g>
	</g>
</g>
<g id="Designed_by_Freepik">
	<g>
		<g>
			<path style="fill:#102947;" d="M180.308,477.664v-0.161c-0.218,0.249-0.432,0.452-0.644,0.608
				c-0.212,0.157-0.441,0.276-0.689,0.357c-0.247,0.082-0.517,0.122-0.81,0.122c-0.388,0-0.747-0.082-1.078-0.246
				c-0.33-0.164-0.616-0.399-0.857-0.704c-0.242-0.305-0.425-0.662-0.549-1.074c-0.124-0.412-0.187-0.857-0.187-1.335
				c0-1.013,0.248-1.804,0.742-2.369c0.495-0.565,1.146-0.848,1.953-0.848c0.467,0,0.861,0.081,1.181,0.24
				c0.321,0.16,0.633,0.408,0.938,0.739v-2.392c0-0.333,0.066-0.583,0.199-0.754c0.132-0.17,0.321-0.255,0.567-0.255
				c0.245,0,0.434,0.078,0.567,0.234c0.133,0.157,0.199,0.386,0.199,0.691v7.147c0,0.309-0.071,0.54-0.214,0.694
				c-0.143,0.154-0.326,0.231-0.552,0.231c-0.221,0-0.405-0.08-0.549-0.24C180.38,478.188,180.308,477.96,180.308,477.664z
				 M177.12,475.283c0,0.439,0.068,0.813,0.205,1.122c0.137,0.309,0.324,0.541,0.561,0.697c0.238,0.157,0.497,0.236,0.777,0.236
				c0.285,0,0.545-0.074,0.781-0.223c0.235-0.148,0.423-0.376,0.564-0.682c0.141-0.307,0.211-0.691,0.211-1.149
				c0-0.432-0.07-0.803-0.211-1.114c-0.14-0.31-0.33-0.547-0.57-0.712c-0.24-0.164-0.502-0.245-0.786-0.245
				c-0.297,0-0.562,0.084-0.796,0.252c-0.233,0.168-0.414,0.409-0.543,0.724C177.184,474.503,177.12,474.868,177.12,475.283z"/>
			<path style="fill:#102947;" d="M187.454,475.693h-3.17c0.004,0.367,0.078,0.692,0.223,0.973c0.144,0.281,0.336,0.493,0.576,0.635
				c0.24,0.143,0.504,0.213,0.793,0.213c0.194,0,0.371-0.022,0.531-0.067c0.16-0.046,0.315-0.117,0.466-0.214
				c0.15-0.096,0.289-0.201,0.415-0.312c0.126-0.111,0.29-0.262,0.493-0.452c0.083-0.071,0.202-0.107,0.357-0.107
				c0.166,0,0.3,0.046,0.403,0.137c0.103,0.091,0.155,0.219,0.155,0.386c0,0.147-0.058,0.317-0.172,0.513
				c-0.116,0.196-0.289,0.384-0.52,0.564c-0.232,0.18-0.522,0.329-0.873,0.448c-0.35,0.119-0.753,0.178-1.208,0.178
				c-1.04,0-1.85-0.297-2.428-0.89c-0.578-0.593-0.867-1.399-0.867-2.416c0-0.479,0.071-0.923,0.213-1.332
				c0.143-0.41,0.351-0.761,0.623-1.054c0.273-0.293,0.609-0.517,1.01-0.674c0.399-0.156,0.843-0.234,1.33-0.234
				c0.633,0,1.176,0.133,1.629,0.4c0.454,0.267,0.793,0.612,1.019,1.035c0.225,0.424,0.338,0.856,0.338,1.294
				c0,0.408-0.117,0.672-0.35,0.793C188.207,475.632,187.878,475.693,187.454,475.693z M184.284,474.773h2.939
				c-0.039-0.554-0.189-0.969-0.448-1.244c-0.259-0.275-0.6-0.413-1.024-0.413c-0.404,0-0.735,0.139-0.994,0.418
				C184.497,473.813,184.34,474.227,184.284,474.773z"/>
			<path style="fill:#102947;" d="M194.838,476.47c0,0.447-0.108,0.831-0.327,1.149c-0.217,0.319-0.539,0.56-0.965,0.725
				c-0.425,0.164-0.943,0.246-1.552,0.246c-0.582,0-1.08-0.089-1.496-0.267c-0.415-0.178-0.722-0.401-0.92-0.667
				c-0.198-0.268-0.297-0.535-0.297-0.805c0-0.178,0.063-0.33,0.19-0.457c0.126-0.126,0.287-0.19,0.481-0.19
				c0.17,0,0.3,0.041,0.391,0.124c0.091,0.083,0.179,0.2,0.261,0.35c0.166,0.29,0.366,0.504,0.597,0.648
				c0.231,0.142,0.547,0.214,0.947,0.214c0.325,0,0.591-0.073,0.798-0.217c0.208-0.145,0.311-0.31,0.311-0.496
				c0-0.285-0.107-0.492-0.324-0.622c-0.216-0.131-0.571-0.256-1.066-0.375c-0.558-0.138-1.012-0.284-1.362-0.436
				c-0.35-0.151-0.63-0.353-0.84-0.602c-0.21-0.25-0.315-0.557-0.315-0.92c0-0.324,0.097-0.631,0.291-0.92
				c0.194-0.288,0.48-0.519,0.858-0.691c0.377-0.173,0.833-0.259,1.368-0.259c0.42,0,0.797,0.043,1.131,0.131
				c0.335,0.086,0.614,0.204,0.837,0.35c0.224,0.146,0.394,0.308,0.51,0.486c0.117,0.178,0.175,0.352,0.175,0.523
				c0,0.185-0.062,0.338-0.187,0.457c-0.124,0.118-0.301,0.178-0.531,0.178c-0.166,0-0.308-0.048-0.424-0.143
				c-0.117-0.095-0.25-0.237-0.401-0.427c-0.123-0.158-0.266-0.285-0.433-0.38c-0.166-0.095-0.392-0.142-0.677-0.142
				c-0.293,0-0.536,0.062-0.73,0.187c-0.194,0.124-0.291,0.279-0.291,0.465c0,0.171,0.071,0.31,0.213,0.419
				c0.143,0.109,0.335,0.2,0.577,0.27c0.241,0.071,0.573,0.158,0.997,0.261c0.502,0.123,0.912,0.27,1.231,0.44
				c0.318,0.17,0.56,0.371,0.725,0.603C194.756,475.909,194.838,476.173,194.838,476.47z"/>
			<path style="fill:#102947;" d="M196.494,471.247c-0.225,0-0.418-0.07-0.579-0.208c-0.16-0.138-0.24-0.334-0.24-0.588
				c0-0.23,0.082-0.418,0.246-0.567s0.356-0.223,0.573-0.223c0.21,0,0.396,0.067,0.558,0.202c0.162,0.135,0.244,0.33,0.244,0.588
				c0,0.25-0.08,0.444-0.238,0.585C196.899,471.176,196.711,471.247,196.494,471.247z M197.295,472.921v4.683
				c0,0.325-0.077,0.571-0.232,0.737c-0.155,0.166-0.35,0.249-0.588,0.249c-0.238,0-0.431-0.085-0.579-0.255
				c-0.149-0.17-0.222-0.414-0.222-0.731v-4.636c0-0.32,0.074-0.561,0.222-0.724c0.148-0.162,0.341-0.243,0.579-0.243
				c0.238,0,0.433,0.081,0.588,0.243C197.218,472.406,197.295,472.632,197.295,472.921z"/>
			<path style="fill:#102947;" d="M204.395,473.188v4.707c0,0.538-0.058,1.001-0.173,1.39c-0.114,0.387-0.298,0.708-0.552,0.961
				c-0.253,0.253-0.585,0.441-0.994,0.563c-0.41,0.123-0.919,0.184-1.529,0.184c-0.558,0-1.057-0.078-1.496-0.234
				c-0.439-0.157-0.777-0.358-1.015-0.605c-0.237-0.247-0.356-0.502-0.356-0.763c0-0.198,0.067-0.359,0.202-0.483
				c0.134-0.125,0.297-0.187,0.486-0.187c0.237,0,0.445,0.105,0.623,0.314c0.087,0.107,0.177,0.216,0.27,0.324
				c0.093,0.109,0.196,0.202,0.309,0.28c0.113,0.076,0.248,0.134,0.407,0.172c0.158,0.037,0.341,0.056,0.546,0.056
				c0.42,0,0.745-0.058,0.977-0.175c0.232-0.117,0.394-0.28,0.487-0.49c0.093-0.209,0.147-0.433,0.163-0.673
				c0.016-0.24,0.027-0.624,0.035-1.155c-0.25,0.349-0.537,0.615-0.864,0.797c-0.326,0.182-0.715,0.273-1.166,0.273
				c-0.542,0-1.016-0.138-1.422-0.416c-0.405-0.277-0.717-0.665-0.934-1.163c-0.218-0.499-0.326-1.074-0.326-1.727
				c0-0.486,0.066-0.927,0.198-1.318c0.133-0.393,0.322-0.723,0.567-0.992c0.245-0.269,0.528-0.472,0.849-0.609
				c0.32-0.136,0.673-0.204,1.057-0.204c0.459,0,0.857,0.089,1.193,0.264c0.336,0.177,0.649,0.453,0.938,0.829v-0.22
				c0-0.281,0.069-0.498,0.207-0.653c0.139-0.154,0.317-0.231,0.535-0.231c0.313,0,0.52,0.103,0.623,0.306
				C204.343,472.51,204.395,472.804,204.395,473.188z M199.699,475.242c0,0.657,0.143,1.154,0.43,1.49
				c0.287,0.337,0.658,0.505,1.113,0.505c0.269,0,0.523-0.073,0.762-0.217c0.24-0.145,0.435-0.362,0.585-0.653
				c0.15-0.291,0.226-0.644,0.226-1.06c0-0.66-0.145-1.176-0.436-1.543c-0.291-0.368-0.674-0.552-1.149-0.552
				c-0.463,0-0.834,0.176-1.113,0.529C199.838,474.092,199.699,474.593,199.699,475.242z"/>
			<path style="fill:#102947;" d="M206.97,472.897v0.196c0.284-0.376,0.596-0.652,0.935-0.828c0.339-0.176,0.727-0.264,1.166-0.264
				c0.428,0,0.809,0.093,1.146,0.28c0.336,0.186,0.588,0.449,0.753,0.789c0.107,0.198,0.176,0.413,0.208,0.641
				c0.032,0.23,0.048,0.522,0.048,0.879v3.015c0,0.325-0.074,0.571-0.223,0.737c-0.148,0.166-0.341,0.249-0.579,0.249
				c-0.242,0-0.437-0.085-0.588-0.255c-0.151-0.17-0.225-0.414-0.225-0.731v-2.701c0-0.534-0.075-0.943-0.223-1.226
				c-0.149-0.283-0.444-0.425-0.888-0.425c-0.288,0-0.552,0.086-0.789,0.258c-0.238,0.173-0.412,0.409-0.523,0.71
				c-0.079,0.242-0.119,0.692-0.119,1.353v2.03c0,0.328-0.077,0.576-0.228,0.74c-0.152,0.164-0.349,0.246-0.59,0.246
				c-0.234,0-0.425-0.085-0.576-0.255c-0.15-0.17-0.225-0.414-0.225-0.731v-4.683c0-0.309,0.067-0.54,0.202-0.692
				c0.135-0.152,0.319-0.228,0.552-0.228c0.143,0,0.272,0.034,0.387,0.101c0.114,0.068,0.207,0.168,0.276,0.302
				C206.936,472.538,206.97,472.703,206.97,472.897z"/>
			<path style="fill:#102947;" d="M216.829,475.693h-3.17c0.004,0.367,0.078,0.692,0.223,0.973c0.144,0.281,0.336,0.493,0.576,0.635
				c0.239,0.143,0.503,0.213,0.792,0.213c0.194,0,0.371-0.022,0.532-0.067c0.16-0.046,0.315-0.117,0.466-0.214
				c0.15-0.096,0.288-0.201,0.416-0.312c0.126-0.111,0.29-0.262,0.492-0.452c0.083-0.071,0.202-0.107,0.356-0.107
				c0.166,0,0.301,0.046,0.404,0.137c0.103,0.091,0.154,0.219,0.154,0.386c0,0.147-0.057,0.317-0.172,0.513
				c-0.115,0.196-0.288,0.384-0.52,0.564c-0.232,0.18-0.522,0.329-0.872,0.448c-0.35,0.119-0.753,0.178-1.208,0.178
				c-1.041,0-1.85-0.297-2.428-0.89c-0.577-0.593-0.866-1.399-0.866-2.416c0-0.479,0.071-0.923,0.214-1.332
				c0.143-0.41,0.351-0.761,0.624-1.054c0.273-0.293,0.609-0.517,1.009-0.674c0.399-0.156,0.843-0.234,1.33-0.234
				c0.633,0,1.175,0.133,1.629,0.4c0.453,0.267,0.793,0.612,1.019,1.035c0.225,0.424,0.339,0.856,0.339,1.294
				c0,0.408-0.117,0.672-0.35,0.793C217.582,475.632,217.253,475.693,216.829,475.693z M213.659,474.773h2.938
				c-0.039-0.554-0.189-0.969-0.448-1.244c-0.259-0.275-0.601-0.413-1.024-0.413c-0.404,0-0.736,0.139-0.995,0.418
				C213.872,473.813,213.715,474.227,213.659,474.773z"/>
			<path style="fill:#102947;" d="M223.435,477.664v-0.161c-0.218,0.249-0.432,0.452-0.644,0.608
				c-0.212,0.157-0.441,0.276-0.689,0.357c-0.247,0.082-0.517,0.122-0.81,0.122c-0.389,0-0.747-0.082-1.078-0.246
				c-0.331-0.164-0.616-0.399-0.858-0.704c-0.242-0.305-0.424-0.662-0.549-1.074c-0.125-0.412-0.187-0.857-0.187-1.335
				c0-1.013,0.247-1.804,0.742-2.369c0.495-0.565,1.146-0.848,1.953-0.848c0.467,0,0.861,0.081,1.181,0.24
				c0.32,0.16,0.633,0.408,0.938,0.739v-2.392c0-0.333,0.066-0.583,0.199-0.754c0.132-0.17,0.322-0.255,0.567-0.255
				c0.245,0,0.434,0.078,0.567,0.234c0.132,0.157,0.199,0.386,0.199,0.691v7.147c0,0.309-0.071,0.54-0.214,0.694
				c-0.143,0.154-0.326,0.231-0.552,0.231c-0.221,0-0.405-0.08-0.549-0.24C223.507,478.188,223.435,477.96,223.435,477.664z
				 M220.248,475.283c0,0.439,0.068,0.813,0.204,1.122c0.136,0.309,0.324,0.541,0.562,0.697c0.237,0.157,0.496,0.236,0.777,0.236
				c0.285,0,0.546-0.074,0.781-0.223c0.236-0.148,0.424-0.376,0.564-0.682c0.141-0.307,0.211-0.691,0.211-1.149
				c0-0.432-0.07-0.803-0.211-1.114c-0.14-0.31-0.33-0.547-0.57-0.712c-0.24-0.164-0.502-0.245-0.787-0.245
				c-0.296,0-0.562,0.084-0.795,0.252c-0.233,0.168-0.415,0.409-0.543,0.724C220.312,474.503,220.248,474.868,220.248,475.283z"/>
			<path style="fill:#102947;" d="M230.059,470.516v2.475c0.305-0.316,0.615-0.559,0.932-0.727c0.316-0.168,0.709-0.252,1.176-0.252
				c0.538,0,1.01,0.128,1.416,0.382c0.405,0.256,0.72,0.626,0.944,1.111c0.223,0.484,0.336,1.06,0.336,1.725
				c0,0.491-0.063,0.94-0.187,1.35c-0.125,0.409-0.306,0.765-0.543,1.065c-0.238,0.301-0.525,0.534-0.864,0.698
				c-0.339,0.164-0.712,0.246-1.119,0.246c-0.25,0-0.484-0.029-0.704-0.089c-0.22-0.059-0.407-0.137-0.561-0.234
				c-0.154-0.096-0.286-0.197-0.395-0.3c-0.109-0.102-0.253-0.257-0.431-0.463v0.161c0,0.305-0.073,0.535-0.22,0.692
				c-0.146,0.156-0.332,0.234-0.558,0.234c-0.23,0-0.413-0.077-0.549-0.234c-0.137-0.157-0.205-0.388-0.205-0.692v-7.077
				c0-0.328,0.066-0.577,0.198-0.745c0.133-0.168,0.318-0.252,0.555-0.252c0.25,0,0.441,0.08,0.576,0.24
				C229.992,469.991,230.059,470.219,230.059,470.516z M230.136,475.331c0,0.645,0.147,1.14,0.442,1.486
				c0.295,0.347,0.682,0.521,1.161,0.521c0.407,0,0.759-0.177,1.053-0.532c0.295-0.355,0.442-0.862,0.442-1.523
				c0-0.427-0.061-0.796-0.184-1.104c-0.123-0.309-0.297-0.548-0.522-0.715c-0.226-0.168-0.489-0.252-0.79-0.252
				c-0.309,0-0.584,0.084-0.825,0.252c-0.241,0.168-0.431,0.411-0.57,0.73C230.205,474.512,230.136,474.891,230.136,475.331z"/>
			<path style="fill:#102947;" d="M236.963,478.792l0.148-0.363l-1.995-5.022c-0.122-0.288-0.184-0.499-0.184-0.629
				c0-0.139,0.036-0.267,0.107-0.385c0.071-0.119,0.169-0.214,0.294-0.285c0.125-0.072,0.254-0.107,0.389-0.107
				c0.233,0,0.409,0.074,0.529,0.223c0.119,0.148,0.223,0.361,0.314,0.638l1.372,3.989l1.3-3.71c0.103-0.3,0.196-0.536,0.279-0.706
				c0.083-0.17,0.171-0.285,0.264-0.344c0.093-0.06,0.225-0.09,0.395-0.09c0.123,0,0.24,0.032,0.353,0.098
				c0.113,0.065,0.2,0.153,0.261,0.264c0.061,0.111,0.092,0.227,0.092,0.35c-0.016,0.075-0.042,0.182-0.077,0.321
				c-0.036,0.138-0.079,0.28-0.13,0.421l-2.113,5.533c-0.182,0.487-0.36,0.868-0.535,1.145c-0.174,0.277-0.404,0.491-0.691,0.638
				c-0.287,0.149-0.674,0.223-1.161,0.223c-0.475,0-0.831-0.051-1.068-0.154c-0.238-0.104-0.357-0.292-0.357-0.565
				c0-0.186,0.056-0.33,0.169-0.43c0.112-0.101,0.28-0.152,0.501-0.152c0.087,0,0.173,0.012,0.256,0.037
				c0.103,0.023,0.192,0.035,0.267,0.035c0.186,0,0.333-0.027,0.44-0.084c0.107-0.055,0.202-0.151,0.288-0.288
				C236.754,479.258,236.852,479.056,236.963,478.792z"/>
		</g>
		<g>
			<path style="fill:#102947;" d="M260.439,472.141h0.386v-0.487c0-0.509,0.062-0.911,0.192-1.211
				c0.128-0.299,0.347-0.516,0.654-0.653c0.307-0.135,0.727-0.204,1.26-0.204c0.95,0,1.42,0.23,1.42,0.697
				c0,0.149-0.049,0.278-0.15,0.385c-0.096,0.106-0.214,0.16-0.349,0.16c-0.062,0-0.174-0.012-0.329-0.037
				c-0.148-0.021-0.283-0.035-0.389-0.035c-0.292,0-0.479,0.088-0.566,0.259c-0.079,0.172-0.122,0.418-0.122,0.74v0.386h0.396
				c0.62,0,0.926,0.185,0.926,0.56c0,0.262-0.079,0.432-0.245,0.503c-0.163,0.071-0.39,0.107-0.68,0.107h-0.396v4.294
				c0,0.319-0.075,0.563-0.231,0.73c-0.151,0.17-0.346,0.254-0.589,0.254c-0.229,0-0.419-0.084-0.574-0.254
				c-0.153-0.167-0.228-0.411-0.228-0.73v-4.294h-0.446c-0.243,0-0.427-0.053-0.558-0.164c-0.131-0.107-0.197-0.25-0.197-0.424
				C259.625,472.333,259.896,472.141,260.439,472.141L260.439,472.141z"/>
			<path style="fill:#102947;" d="M265.745,476.249v1.355c0,0.327-0.083,0.574-0.234,0.737c-0.154,0.166-0.349,0.247-0.586,0.247
				c-0.239,0-0.43-0.082-0.579-0.25c-0.148-0.165-0.225-0.41-0.225-0.734v-4.514c0-0.729,0.263-1.093,0.788-1.093
				c0.271,0,0.465,0.084,0.583,0.255c0.118,0.171,0.184,0.421,0.198,0.755c0.192-0.334,0.39-0.584,0.593-0.755
				c0.207-0.171,0.477-0.255,0.818-0.255c0.343,0,0.67,0.084,0.991,0.255c0.322,0.171,0.482,0.398,0.482,0.678
				c0,0.197-0.069,0.363-0.204,0.488c-0.137,0.131-0.284,0.195-0.441,0.195c-0.062,0-0.207-0.039-0.433-0.112
				c-0.228-0.071-0.43-0.108-0.602-0.108c-0.237,0-0.433,0.064-0.582,0.186c-0.151,0.128-0.269,0.311-0.353,0.554
				c-0.081,0.247-0.137,0.541-0.17,0.878C265.759,475.35,265.745,475.763,265.745,476.249L265.745,476.249z"/>
			<path style="fill:#102947;" d="M273.196,475.692h-3.171c0.006,0.367,0.078,0.694,0.222,0.974
				c0.147,0.279,0.337,0.491,0.578,0.635c0.24,0.142,0.502,0.212,0.793,0.212c0.194,0,0.371-0.021,0.531-0.07
				c0.159-0.043,0.316-0.116,0.466-0.213c0.151-0.095,0.287-0.199,0.415-0.313c0.126-0.109,0.292-0.26,0.494-0.449
				c0.084-0.071,0.203-0.109,0.355-0.109c0.168,0,0.301,0.046,0.406,0.139c0.104,0.092,0.152,0.219,0.152,0.386
				c0,0.147-0.055,0.317-0.167,0.512c-0.117,0.198-0.289,0.385-0.522,0.566c-0.234,0.178-0.524,0.33-0.873,0.446
				c-0.35,0.119-0.754,0.179-1.207,0.179c-1.044,0-1.853-0.295-2.429-0.889c-0.578-0.595-0.87-1.401-0.87-2.418
				c0-0.479,0.073-0.924,0.217-1.334c0.14-0.411,0.348-0.76,0.624-1.055c0.272-0.294,0.606-0.518,1.008-0.674
				c0.399-0.156,0.842-0.234,1.33-0.234c0.632,0,1.175,0.134,1.629,0.403c0.452,0.264,0.796,0.61,1.018,1.034
				c0.226,0.425,0.339,0.855,0.339,1.296c0,0.405-0.118,0.669-0.351,0.791C273.947,475.631,273.619,475.692,273.196,475.692
				L273.196,475.692z M270.024,474.77h2.938c-0.039-0.553-0.186-0.969-0.446-1.241c-0.261-0.277-0.599-0.413-1.025-0.413
				c-0.403,0-0.736,0.137-0.995,0.418C270.237,473.813,270.079,474.224,270.024,474.77L270.024,474.77z"/>
			<path style="fill:#102947;" d="M279.938,475.692h-3.171c0.004,0.367,0.078,0.694,0.222,0.974
				c0.145,0.279,0.337,0.491,0.576,0.635c0.239,0.142,0.504,0.212,0.795,0.212c0.192,0,0.37-0.021,0.528-0.07
				c0.162-0.043,0.316-0.116,0.469-0.213c0.151-0.095,0.287-0.199,0.415-0.313c0.124-0.109,0.29-0.26,0.493-0.449
				c0.084-0.071,0.204-0.109,0.355-0.109c0.168,0,0.302,0.046,0.406,0.139c0.103,0.092,0.15,0.219,0.15,0.386
				c0,0.147-0.054,0.317-0.171,0.512c-0.111,0.198-0.284,0.385-0.519,0.566c-0.231,0.178-0.525,0.33-0.872,0.446
				c-0.349,0.119-0.755,0.179-1.209,0.179c-1.042,0-1.849-0.295-2.429-0.889c-0.577-0.595-0.868-1.401-0.868-2.418
				c0-0.479,0.073-0.924,0.217-1.334c0.142-0.411,0.349-0.76,0.623-1.055c0.272-0.294,0.608-0.518,1.009-0.674
				c0.398-0.156,0.844-0.234,1.331-0.234c0.63,0,1.174,0.134,1.633,0.403c0.45,0.264,0.791,0.61,1.013,1.034
				c0.225,0.425,0.341,0.855,0.341,1.296c0,0.405-0.12,0.669-0.351,0.791C280.688,475.631,280.36,475.692,279.938,475.692
				L279.938,475.692z M276.767,474.77h2.938c-0.04-0.553-0.19-0.969-0.447-1.241c-0.263-0.277-0.601-0.413-1.027-0.413
				c-0.403,0-0.735,0.137-0.995,0.418C276.978,473.813,276.819,474.224,276.767,474.77L276.767,474.77z"/>
			<path style="fill:#102947;" d="M283.488,472.909v0.194c0.304-0.375,0.621-0.651,0.953-0.828c0.324-0.178,0.699-0.267,1.114-0.267
				c0.497,0,0.96,0.13,1.379,0.386c0.419,0.259,0.749,0.635,0.993,1.129c0.244,0.497,0.366,1.081,0.366,1.758
				c0,0.497-0.07,0.957-0.21,1.376c-0.14,0.418-0.336,0.767-0.581,1.05c-0.246,0.281-0.535,0.501-0.868,0.654
				c-0.339,0.151-0.695,0.227-1.08,0.227c-0.461,0-0.853-0.093-1.166-0.28c-0.314-0.182-0.614-0.458-0.901-0.816v2.433
				c0,0.71-0.26,1.069-0.778,1.069c-0.306,0-0.505-0.091-0.607-0.275c-0.095-0.187-0.146-0.452-0.146-0.807v-6.996
				c0-0.309,0.066-0.537,0.2-0.692c0.134-0.15,0.32-0.228,0.553-0.228c0.231,0,0.416,0.078,0.56,0.234
				C283.417,472.39,283.488,472.612,283.488,472.909L283.488,472.909z M286.665,475.264c0-0.428-0.067-0.796-0.197-1.102
				c-0.131-0.308-0.312-0.542-0.541-0.705c-0.229-0.164-0.489-0.248-0.77-0.248c-0.446,0-0.824,0.178-1.13,0.527
				c-0.308,0.354-0.462,0.872-0.462,1.558c0,0.641,0.153,1.146,0.46,1.504c0.304,0.358,0.679,0.536,1.133,0.536
				c0.268,0,0.519-0.079,0.748-0.233c0.232-0.158,0.416-0.392,0.552-0.704C286.595,476.085,286.665,475.706,286.665,475.264
				L286.665,475.264z"/>
			<path style="fill:#102947;" d="M289.925,471.243c-0.226,0-0.418-0.071-0.577-0.209c-0.162-0.139-0.242-0.333-0.242-0.585
				c0-0.23,0.082-0.419,0.248-0.569c0.164-0.146,0.354-0.222,0.571-0.222c0.212,0,0.397,0.067,0.559,0.2
				c0.162,0.137,0.244,0.334,0.244,0.591c0,0.25-0.079,0.444-0.236,0.585C290.333,471.171,290.145,471.243,289.925,471.243
				L289.925,471.243z M290.728,472.917v4.689c0,0.322-0.078,0.568-0.231,0.732c-0.156,0.168-0.35,0.25-0.588,0.25
				c-0.238,0-0.428-0.084-0.58-0.254c-0.146-0.173-0.222-0.416-0.222-0.729v-4.642c0-0.319,0.076-0.559,0.222-0.721
				c0.152-0.165,0.342-0.245,0.58-0.245c0.238,0,0.432,0.079,0.588,0.245C290.65,472.404,290.728,472.631,290.728,472.917
				L290.728,472.917z"/>
			<path style="fill:#102947;" d="M295.952,477.849l-1.427-2.354l-0.88,0.83v1.291c0,0.312-0.083,0.551-0.248,0.718
				c-0.161,0.17-0.354,0.254-0.566,0.254c-0.249,0-0.447-0.082-0.588-0.25c-0.142-0.165-0.215-0.41-0.215-0.734v-6.915
				c0-0.358,0.071-0.632,0.207-0.821c0.139-0.19,0.341-0.283,0.596-0.283c0.25,0,0.445,0.086,0.593,0.257
				c0.146,0.169,0.221,0.421,0.221,0.751v3.933l1.822-1.914c0.226-0.235,0.395-0.4,0.517-0.486c0.118-0.087,0.262-0.13,0.431-0.13
				c0.204,0,0.371,0.065,0.51,0.193c0.132,0.129,0.2,0.291,0.2,0.483c0,0.237-0.221,0.555-0.659,0.951l-0.86,0.789l1.662,2.614
				c0.121,0.196,0.212,0.34,0.265,0.441c0.053,0.099,0.081,0.2,0.081,0.289c0,0.258-0.071,0.459-0.213,0.61
				c-0.14,0.148-0.327,0.221-0.554,0.221c-0.198,0-0.352-0.051-0.458-0.16C296.282,478.32,296.133,478.126,295.952,477.849
				L295.952,477.849z"/>
			<path style="fill:#102947;" d="M299.474,478.588c-0.245,0-0.455-0.079-0.634-0.238c-0.178-0.156-0.268-0.378-0.268-0.665
				c0-0.241,0.086-0.449,0.256-0.622c0.172-0.174,0.38-0.262,0.63-0.262c0.248,0,0.46,0.087,0.639,0.258
				c0.175,0.172,0.264,0.383,0.264,0.626c0,0.283-0.089,0.505-0.264,0.662C299.919,478.51,299.711,478.588,299.474,478.588
				L299.474,478.588z"/>
			<path style="fill:#102947;" d="M307.536,476.582c0,0.2-0.06,0.418-0.182,0.646c-0.12,0.231-0.305,0.449-0.553,0.656
				c-0.247,0.208-0.557,0.377-0.935,0.502c-0.375,0.126-0.8,0.192-1.269,0.192c-1.004,0-1.786-0.293-2.349-0.876
				c-0.56-0.585-0.841-1.368-0.841-2.35c0-0.667,0.128-1.254,0.387-1.765c0.255-0.509,0.628-0.904,1.113-1.183
				c0.487-0.28,1.072-0.419,1.746-0.419c0.421,0,0.805,0.061,1.158,0.184c0.35,0.122,0.645,0.282,0.891,0.474
				c0.242,0.197,0.428,0.402,0.556,0.62c0.129,0.22,0.192,0.426,0.192,0.617c0,0.192-0.071,0.357-0.214,0.492
				c-0.147,0.134-0.322,0.203-0.524,0.203c-0.137,0-0.249-0.035-0.338-0.104c-0.09-0.07-0.19-0.181-0.299-0.339
				c-0.198-0.299-0.404-0.526-0.622-0.674c-0.214-0.152-0.488-0.226-0.821-0.226c-0.476,0-0.865,0.186-1.158,0.561
				c-0.292,0.372-0.44,0.887-0.44,1.534c0,0.305,0.039,0.587,0.114,0.842c0.073,0.254,0.182,0.472,0.325,0.652
				c0.144,0.179,0.315,0.315,0.516,0.409c0.203,0.096,0.425,0.141,0.665,0.141c0.326,0,0.604-0.075,0.836-0.225
				c0.235-0.151,0.439-0.38,0.616-0.689c0.099-0.182,0.204-0.323,0.318-0.427c0.114-0.102,0.256-0.156,0.422-0.156
				c0.198,0,0.363,0.077,0.491,0.227C307.469,476.251,307.536,476.413,307.536,476.582L307.536,476.582z"/>
			<path style="fill:#102947;" d="M314.53,475.294c0,0.481-0.076,0.928-0.222,1.337c-0.155,0.408-0.37,0.758-0.656,1.049
				c-0.284,0.293-0.626,0.518-1.02,0.675c-0.4,0.154-0.844,0.234-1.337,0.234c-0.491,0-0.933-0.08-1.326-0.239
				c-0.389-0.156-0.732-0.384-1.016-0.676c-0.288-0.298-0.505-0.646-0.657-1.048c-0.143-0.402-0.219-0.846-0.219-1.332
				c0-0.491,0.078-0.941,0.224-1.349c0.151-0.409,0.368-0.757,0.649-1.046c0.282-0.289,0.621-0.511,1.019-0.669
				c0.402-0.156,0.843-0.234,1.326-0.234c0.49,0,0.936,0.078,1.337,0.239c0.398,0.157,0.739,0.384,1.027,0.674
				c0.286,0.297,0.502,0.643,0.65,1.045C314.455,474.362,314.53,474.805,314.53,475.294L314.53,475.294z M312.903,475.294
				c0-0.662-0.146-1.176-0.436-1.543c-0.289-0.372-0.681-0.555-1.171-0.555c-0.317,0-0.597,0.082-0.839,0.246
				c-0.242,0.163-0.425,0.406-0.556,0.727c-0.131,0.321-0.197,0.696-0.197,1.124c0,0.424,0.064,0.792,0.193,1.108
				c0.13,0.319,0.314,0.561,0.554,0.729c0.241,0.167,0.522,0.253,0.845,0.253c0.49,0,0.882-0.185,1.171-0.557
				C312.756,476.458,312.903,475.945,312.903,475.294L312.903,475.294z"/>
			<path style="fill:#102947;" d="M320.712,475.413v2.154c0,0.342-0.075,0.594-0.231,0.767c-0.156,0.17-0.357,0.255-0.611,0.255
				c-0.245,0-0.446-0.085-0.594-0.255c-0.154-0.173-0.233-0.425-0.233-0.767v-2.582c0-0.408-0.013-0.726-0.04-0.953
				c-0.029-0.221-0.105-0.41-0.226-0.552c-0.123-0.147-0.318-0.22-0.582-0.22c-0.532,0-0.88,0.181-1.048,0.55
				c-0.167,0.36-0.254,0.883-0.254,1.567v2.189c0,0.336-0.076,0.591-0.226,0.765c-0.156,0.171-0.354,0.257-0.603,0.257
				c-0.247,0-0.448-0.087-0.604-0.257c-0.157-0.173-0.235-0.428-0.235-0.765v-4.637c0-0.306,0.07-0.538,0.209-0.695
				c0.143-0.16,0.329-0.239,0.556-0.239c0.223,0,0.407,0.077,0.557,0.222c0.148,0.149,0.221,0.354,0.221,0.615v0.153
				c0.283-0.334,0.584-0.582,0.903-0.738c0.323-0.162,0.676-0.241,1.071-0.241c0.407,0,0.757,0.082,1.049,0.244
				c0.293,0.163,0.533,0.41,0.725,0.735c0.275-0.33,0.568-0.577,0.881-0.738c0.313-0.16,0.658-0.241,1.039-0.241
				c0.441,0,0.826,0.089,1.146,0.262c0.319,0.174,0.558,0.425,0.717,0.747c0.138,0.295,0.206,0.756,0.206,1.385v3.164
				c0,0.342-0.076,0.594-0.23,0.767c-0.154,0.17-0.359,0.255-0.612,0.255c-0.247,0-0.446-0.087-0.603-0.257
				c-0.156-0.173-0.235-0.428-0.235-0.765v-2.726c0-0.349-0.015-0.627-0.043-0.836c-0.029-0.211-0.11-0.388-0.239-0.529
				c-0.133-0.142-0.332-0.215-0.596-0.215c-0.214,0-0.416,0.066-0.609,0.192c-0.192,0.124-0.342,0.298-0.45,0.508
				C320.774,474.235,320.712,474.719,320.712,475.413L320.712,475.413z"/>
		</g>
		<g>
			<path style="fill:#102947;" d="M245.272,474.902c-0.001-0.003-0.001-0.006-0.001-0.011
				C245.271,474.896,245.271,474.899,245.272,474.902z"/>
			<path style="fill:#102947;" d="M245.354,475.42c0.001,0,0.001,0,0.001,0c-0.031-0.148-0.055-0.294-0.074-0.439
				C245.3,475.127,245.324,475.274,245.354,475.42z"/>
			<path style="fill:#102947;" d="M245.89,476.924c-0.004-0.006-0.007-0.013-0.011-0.021
				C245.883,476.91,245.887,476.918,245.89,476.924z"/>
			<path style="fill:#102947;" d="M245.839,476.824c-0.014-0.027-0.027-0.056-0.041-0.084
				C245.811,476.77,245.825,476.796,245.839,476.824z"/>
			<path style="fill:#102947;" d="M245.504,475.999c0.079,0.25,0.175,0.493,0.286,0.724c-0.113-0.236-0.206-0.479-0.284-0.724
				H245.504z"/>
			<path style="fill:#102947;" d="M251.545,468.691c0.313,0,0.545,0.025,0.809,0.069l0.075-0.477c0,0-0.732-0.225-1.694-0.146
				l-0.076-0.259c0.299-0.063,0.524-0.329,0.524-0.646c0-0.364-0.296-0.659-0.661-0.659c-0.364,0-0.66,0.295-0.66,0.659
				c0,0.317,0.224,0.583,0.522,0.646l0.084,0.289c-1.021,0.14-1.834,0.539-1.834,0.539l0.144,0.441
				c0.618-0.206,1.154-0.331,1.64-0.383C250.895,468.714,251.253,468.691,251.545,468.691z"/>
			<path style="fill:#102947;" d="M245.878,471.103l0.004-0.005c0.024-0.031,0.047-0.06,0.071-0.089l-0.195-0.141l-0.305-0.223
				c-0.017,0.024-0.497,0.465-0.876,1.28c-0.016-0.026-0.035-0.051-0.056-0.074c-0.114-0.124-0.272-0.187-0.474-0.184
				c-0.003,0-0.006,0-0.009,0c-0.125,0-0.211-0.042-0.267-0.092c0.056-0.071,0.089-0.16,0.089-0.258c0-0.23-0.187-0.418-0.418-0.418
				c-0.23,0-0.418,0.188-0.418,0.418c0,0.231,0.187,0.418,0.418,0.418c0.036,0,0.071-0.006,0.104-0.013
				c0.103,0.114,0.266,0.214,0.505,0.209c0.123-0.001,0.213,0.03,0.273,0.097c0.069,0.076,0.093,0.185,0.1,0.267
				c-0.001,0.001-0.001,0.003-0.002,0.003c-0.272,0.743-0.194,1.669-0.194,1.669l0.661,0.026c0.013-0.337,0.062-0.926,0.232-1.394
				C245.449,471.693,245.861,471.127,245.878,471.103z"/>
			<path style="fill:#102947;" d="M257.295,469.244c-0.23,0-0.418,0.187-0.418,0.418c0,0.036,0.005,0.07,0.015,0.103
				c-0.115,0.104-0.214,0.267-0.211,0.507c0.002,0.123-0.03,0.212-0.096,0.273c-0.053,0.047-0.12,0.072-0.185,0.088
				c-0.492-0.689-1.098-1.11-1.098-1.11l-0.474,0.508c0.358,0.326,0.725,0.734,1.08,1.244c0.246,0.352,0.499,0.806,0.71,1.259
				l0.64-0.304c0,0-0.292-0.722-0.704-1.37c0.071-0.025,0.143-0.064,0.207-0.12c0.125-0.113,0.187-0.273,0.183-0.474
				c-0.001-0.13,0.041-0.218,0.093-0.276c0.071,0.054,0.161,0.089,0.258,0.089c0.232,0,0.419-0.187,0.419-0.418
				C257.714,469.431,257.527,469.244,257.295,469.244z"/>
			<path style="fill:#102947;" d="M255.634,474.995c-0.881,0.429-2.33,0.996-4.238,1.262c-0.749,0.104-1.475,0.142-2.143,0.142
				c-0.869,0-1.637-0.065-2.226-0.139c-0.673-0.085-1.199-0.189-1.52-0.261c0.077,0.245,0.171,0.488,0.284,0.724
				c0.002,0.006,0.005,0.013,0.008,0.017c0.013,0.027,0.027,0.056,0.041,0.084c0.014,0.027,0.027,0.054,0.041,0.079
				c0.004,0.007,0.007,0.015,0.011,0.021c0.189,0.356,0.417,0.684,0.675,0.968c0.9,0.985,1.817,1.14,1.826,1.141l0.014,0.002
				l0.014,0.005c0.008,0.003,0.821,0.266,2.057,0.266c1.216,0,2.409-0.245,3.546-0.729c0.842-0.431,1.639-1.085,2.034-1.669
				c0.305-0.452,0.525-0.933,0.656-1.434c0.069-0.266,0.125-0.692,0.092-1.141C256.556,474.5,256.165,474.737,255.634,474.995z"/>
			<path style="fill:#102947;" d="M246.161,471.312c-0.026,0.037-0.408,0.578-0.71,1.408c-0.226,0.622-0.216,1.527-0.216,1.538
				v0.002c0,0.212,0.012,0.423,0.035,0.632c0,0.005,0,0.008,0.001,0.011c0.003,0.027,0.007,0.052,0.01,0.079
				c0.019,0.145,0.043,0.291,0.074,0.439c0.438,0.111,3.049,0.72,5.968,0.314c1.829-0.255,3.218-0.795,4.062-1.204
				c0.701-0.34,1.151-0.648,1.325-0.774c-0.173-0.643-0.651-1.65-1.09-2.279c-1.253-1.791-2.604-2.25-3.298-2.365
				c-0.265-0.043-0.477-0.068-0.777-0.068c-0.279,0-0.626,0.022-1.089,0.071c-0.465,0.048-0.982,0.17-1.583,0.372
				c-0.842,0.282-1.605,0.724-2.204,1.28l-0.02,0.019C246.56,470.868,246.374,471.04,246.161,471.312z M253.829,470.895
				c0.601,0,1.089,0.488,1.089,1.089s-0.489,1.09-1.089,1.09c-0.601,0-1.089-0.489-1.089-1.09S253.228,470.895,253.829,470.895z
				 M248.678,470.852c0.973,0,1.761,0.789,1.761,1.761c0,0.972-0.788,1.759-1.761,1.759c-0.972,0-1.76-0.787-1.76-1.759
				C246.918,471.64,247.707,470.852,248.678,470.852z"/>
		</g>
	</g>
</g>
</svg>
